<?xml version="1.0" encoding="utf-8"?>
<!-- Generator: Adobe Illustrator 23.0.4, SVG Export Plug-In . SVG Version: 6.00 Build 0)  -->
<svg version="1.1" id="Layer_1" xmlns="http://www.w3.org/2000/svg" xmlns:xlink="http://www.w3.org/1999/xlink" x="0px" y="0px"
	 viewBox="0 0 751 370" style="enable-background:new 0 0 751 370;" xml:space="preserve">
<style type="text/css">
	.st0{fill:#FFFFFF;}
	.st1{fill:#0D77A8;}
</style>
<path class="st0" d="M366.8,286v80.8h-50v-20.5c20.5-16.2,37.4-36.8,49.3-60.3H366.8z"/>
<path class="st0" d="M366.4,175.5V4.6H185.7c-50,0-95.3,20.2-128.1,53s-53,78.1-53,128.1c0,55.2,24.7,104.6,63.7,137.9
	c31.6,26.9,72.7,43.2,117.5,43.2c51.5,0,98.1-21.5,131.1-56.1c7.2-7.6,13.8-15.8,19.6-24.6c19.2-28.7,30.4-63.2,30.4-100.3
	C366.8,182.2,366.6,178.9,366.4,175.5z M185.7,315.7c-71.9,0-130.1-58.3-130.1-130c0-35.9,14.6-68.4,38.1-92
	c23.5-23.5,56-38.1,92-38.1h129.8v122.8c0.2,2.4,0.3,4.8,0.3,7.3C315.7,257.5,257.4,315.7,185.7,315.7z"/>
<path class="st0" d="M668.1,366.8"/>
<path class="st1" d="M450.5,54.2c-28.3,0-51.3-22.9-51.3-51.2h296.2c28.2,0.1,51,22.8,51.1,51l-0.2,0.2L703.5,97L485.1,315.3
	l0.1,0.1c-0.1,0.1-0.3,0.3-0.3,0.4h210.4c28.3,0,51.2,22.9,51.2,51.2l-51.2-0.1L450.5,367c-28.3,0-51.3-22.9-51.3-51.2h0.4l-0.4-0.4
	l43-43L660.6,54.1L450.5,54.2z"/>
</svg>
